<svg xmlns="http://www.w3.org/2000/svg" width="72" height="79.93" viewBox="0 0 72 79.93">
  <g class="Fertilizer" transform="translate(-9 -5.035)">
    <path class="Fertilizer_dum" data-name="fertilizer" d="M62.92,17.554a9.29,9.29,0,0,0-6.038-5.8,15.4,15.4,0,0,0-23.341-.707,9.538,9.538,0,0,0-7.194,6.609A7.43,7.43,0,1,0,32.5,30.633a15.4,15.4,0,0,0,24.873-.11A7.428,7.428,0,1,0,62.92,17.554Z" fill="#888080" stroke="#231f20" stroke-miterlimit="10" stroke-width="2"/>
    <g class="fertilizers">
      <path d="M59.277,17.332a3.286,3.286,0,0,0-2.137-2.053,5.448,5.448,0,0,0-8.259-.25,3.373,3.373,0,0,0-2.545,2.338,2.629,2.629,0,1,0,2.178,4.593,5.446,5.446,0,0,0,8.8-.039,2.628,2.628,0,1,0,1.962-4.589Z" fill="#888080"/>
      <path d="M41.783,17.332a3.286,3.286,0,0,0-2.137-2.053,5.448,5.448,0,0,0-8.259-.25,3.376,3.376,0,0,0-2.546,2.338A2.629,2.629,0,1,0,31.02,21.96a5.446,5.446,0,0,0,8.8-.039,2.628,2.628,0,1,0,1.962-4.589Z" fill="#888080"/>
      <path d="M62.058,28.254A3.288,3.288,0,0,0,59.921,26.2a5.45,5.45,0,0,0-8.259-.25,3.376,3.376,0,0,0-2.546,2.339,2.629,2.629,0,1,0,2.179,4.593,5.448,5.448,0,0,0,8.8-.039,2.628,2.628,0,1,0,1.962-4.589Z" fill="#888080"/>
      <path d="M41.783,27.622a3.286,3.286,0,0,0-2.137-2.053,5.448,5.448,0,0,0-8.259-.25,3.376,3.376,0,0,0-2.546,2.338A2.629,2.629,0,1,0,31.02,32.25a5.446,5.446,0,0,0,8.8-.039,2.628,2.628,0,1,0,1.962-4.589Z" fill="#888080"/>
    </g>
    <g class="burlap_bag">
      <path d="M75.333,75.076H14.667A4.56,4.56,0,0,0,10,79.521h0a4.56,4.56,0,0,0,4.667,4.444H75.333A4.56,4.56,0,0,0,80,79.521h0A4.56,4.56,0,0,0,75.333,75.076Z" fill="#fff" stroke="#231f20" stroke-miterlimit="10" stroke-width="2"/>
      <path d="M16.222,72.766c0,.775.014,1.541.024,2.31H73.754c.01-.769.024-1.535.024-2.31,0-15.793.218-30.373-3.353-42.134H19.576C16,42.393,16.222,56.973,16.222,72.766Z" fill="#fff" stroke="#231f20" stroke-miterlimit="10" stroke-width="2"/>
      <path d="M75.787,26.632a3.946,3.946,0,0,0-3.889-4H17.454a4,4,0,0,0,0,8H71.9A3.946,3.946,0,0,0,75.787,26.632Z" fill="#fff" stroke="#231f20" stroke-miterlimit="10" stroke-width="2"/>
    </g>
    <g class="mark">
      <path d="M48.787,43.861c5.6,5.6,3.909,16.373,3.909,16.373s-10.771,1.691-16.372-3.91-3.909-16.372-3.909-16.372S43.186,38.261,48.787,43.861Z" fill="#dee8cf" stroke="#231f20" stroke-miterlimit="10" stroke-width="2"/>
      <line x2="19.667" y2="19.667" transform="translate(38.137 45.674)" fill="#fff" stroke="#231f20" stroke-miterlimit="10" stroke-width="2"/>
      <line x2="4.418" transform="translate(38.679 50.527)" fill="#fff" stroke="#231f20" stroke-miterlimit="10" stroke-width="2"/>
      <line y2="4.418" transform="translate(42.99 46.216)" fill="#fff" stroke="#231f20" stroke-miterlimit="10" stroke-width="2"/>
      <line x2="4.418" transform="translate(43.552 55.508)" fill="#fff" stroke="#231f20" stroke-miterlimit="10" stroke-width="2"/>
      <line y2="4.418" transform="translate(47.971 51.089)" fill="#fff" stroke="#231f20" stroke-miterlimit="10" stroke-width="2"/>
    </g>
  </g>
</svg>
