<svg xmlns="http://www.w3.org/2000/svg" width="58.868" height="87.503" viewBox="0 0 58.868 87.503">
  <g class="Pesticide" transform="translate(-135.186 -110.922)">
    <g class="can">
      <path d="M18.889,0h0A18.889,18.889,0,0,1,37.778,18.889V72.45a0,0,0,0,1,0,0H0a0,0,0,0,1,0,0V18.889A18.889,18.889,0,0,1,18.889,0Z" transform="translate(136.111 125.05)" fill="#c4e8fa" stroke="#231f20" stroke-miterlimit="10" stroke-width="1.85"/>
      <rect width="12.305" height="12.339" transform="translate(148.847 113.843)" fill="#fff" stroke="#231f20" stroke-miterlimit="10" stroke-width="1.891"/>
      <circle cx="0.708" cy="0.708" r="0.708" transform="translate(157.951 119.305)" fill="none" stroke="#231f20" stroke-miterlimit="10" stroke-width="0.473"/>
    </g>
    <g class="spray">
      <line x1="23.146" y2="5.223" transform="translate(164.338 112.053)" fill="none" stroke="#231f20" stroke-linecap="round" stroke-linejoin="round" stroke-width="1.891"/>
      <line x1="23.141" y1="5.569" transform="translate(164.343 122.984)" fill="none" stroke="#231f20" stroke-linecap="round" stroke-linejoin="round" stroke-width="1.891"/>
      <line x2="28.096" transform="translate(165.013 120.128)" fill="none" stroke="#231f20" stroke-linecap="round" stroke-linejoin="round" stroke-width="1.891"/>
    </g>
    <path class="prohibition" d="M155,149.556a13.613,13.613,0,1,0,13.578,13.614A13.611,13.611,0,0,0,155,149.556Zm0,1.892a11.607,11.607,0,0,1,7.561,2.8l-16.457,16.5a11.715,11.715,0,0,1,8.9-19.3Zm0,23.442a11.612,11.612,0,0,1-7.561-2.8l16.457-16.5a11.714,11.714,0,0,1-8.9,19.3Z" fill="#c64a27"/>
    <g class="bug">
      <circle cx="2.833" cy="2.833" r="2.833" transform="translate(148.02 156.143)" fill="#231f20"/>
      <circle cx="2.361" cy="2.361" r="2.361" transform="translate(151.621 160.246)" fill="#231f20"/>
      <circle cx="3.069" cy="3.069" r="3.069" transform="translate(154.041 163.167)" fill="#231f20"/>
      <path d="M153.214,160.482l1.8-1.8.89-2.533" fill="none" stroke="#231f20" stroke-miterlimit="10" stroke-width="0.708"/>
      <path d="M156.107,162.292l2.115-1.456,3.463-.354" fill="none" stroke="#231f20" stroke-miterlimit="10" stroke-width="0.708"/>
      <path d="M158.58,164.1l2.672-.457,2.44.457" fill="none" stroke="#231f20" stroke-miterlimit="10" stroke-width="0.708"/>
      <line y2="2.155" transform="translate(150.853 154.461)" fill="none" stroke="#231f20" stroke-miterlimit="10" stroke-width="0.708"/>
      <path d="M152.329,161.367l-1.8,1.8-2.533.89" fill="none" stroke="#231f20" stroke-miterlimit="10" stroke-width="0.708"/>
      <path d="M154.139,164.259l-1.456,2.115-.354,3.463" fill="none" stroke="#231f20" stroke-miterlimit="10" stroke-width="0.708"/>
      <path d="M155.944,166.733l-.457,2.672.457,2.44" fill="none" stroke="#231f20" stroke-miterlimit="10" stroke-width="0.708"/>
      <line x2="2.155" transform="translate(146.308 159.006)" fill="none" stroke="#231f20" stroke-miterlimit="10" stroke-width="0.708"/>
    </g>
  </g>
</svg>
