<svg xmlns="http://www.w3.org/2000/svg" width="23.266" height="22.384" viewBox="0 0 23.266 22.384">
  <g id="그룹_252" data-name="그룹 252" transform="translate(-334.867 -765)" opacity="0.5">
    <g id="패스_66" data-name="패스 66" transform="matrix(0.755, -0.656, 0.656, 0.755, 337.971, 783.33)" fill="#cff1b6">
      <path d="M 0.3289985656738281 1.759185910224915 L 2.46321439743042 -0.8100144863128662 L 9.572906494140625 1.079972863197327 L 0.3289985656738281 1.759185910224915 Z" stroke="none"/>
      <path d="M 2.643610954284668 -0.2446997165679932 L 1.464791297912598 1.174381017684937 L 6.570602416992188 0.7992260456085205 L 2.643610954284668 -0.2446997165679932 M 2.282814979553223 -1.375346660614014 L 12.57523536682129 1.360723376274109 L -0.8068046569824219 2.34398341178894 L 2.282814979553223 -1.375346660614014 Z" stroke="none" fill="#707070"/>
    </g>
    <g id="패스_67" data-name="패스 67" transform="matrix(0.545, 0.839, -0.839, 0.545, 349.963, 765)" fill="#cff1b6">
      <path d="M 14.24999713897705 17.5 L 0.7500025033950806 17.5 L 7.5 1.300006031990051 L 14.24999713897705 17.5 Z" stroke="none"/>
      <path d="M 7.5 2.600011825561523 L 1.500004768371582 17 L 13.49999523162842 17 L 7.5 2.600011825561523 M 7.5 0 L 15 18 L 0 18 L 7.5 0 Z" stroke="none" fill="#707070"/>
    </g>
    <path id="패스_65" data-name="패스 65" d="M852.6,4974.059v15.718" transform="matrix(0.545, 0.839, -0.839, 0.545, 4059.65, -2651.717)" fill="#cff1b6" stroke="#707070" stroke-width="1"/>
  </g>
</svg>
