<svg xmlns="http://www.w3.org/2000/svg" width="13.3" height="15.625" viewBox="0 0 13.3 15.625">
  <path id="패스_76" data-name="패스 76" d="M65.01,8.686v-2.1l-.53-.234L60.805,9.7v.469l3.675,3.344.53-.234V11.194a4.014,4.014,0,1,1-4.623,4.526,4.078,4.078,0,0,1-.044-.567H57.859A6.5,6.5,0,1,0,65.01,8.686Zm-.651,12.333a5.872,5.872,0,0,1-5.83-5.23h1.228A4.621,4.621,0,1,0,64.376,10.5V12.56L61.49,9.933l2.886-2.627V9.288a5.974,5.974,0,0,1,.634.037,5.865,5.865,0,0,1-.651,11.694Z" transform="translate(-57.709 -6.178)" fill="#fff" stroke="#fff" stroke-width="0.3"/>
</svg>
