<svg xmlns="http://www.w3.org/2000/svg" width="22.996" height="25" viewBox="0 0 22.996 25">
  <g id="그룹_200" data-name="그룹 200" transform="translate(0)">
    <path id="패스_53" data-name="패스 53" d="M125.648,50.014h-2.335v-.651a1.353,1.353,0,1,0-2.707,0v.651h-8.141v-.651a1.353,1.353,0,1,0-2.707,0v.651h-2.335a2.389,2.389,0,0,0-2.386,2.386V70.624a2.389,2.389,0,0,0,2.386,2.386h18.223a2.389,2.389,0,0,0,2.386-2.386V52.4A2.389,2.389,0,0,0,125.648,50.014Zm1.085,20.61a1.086,1.086,0,0,1-1.085,1.085H107.424a1.086,1.086,0,0,1-1.085-1.085V52.4a1.086,1.086,0,0,1,1.085-1.085h2.335v.651a1.353,1.353,0,0,0,2.707,0v-.651h8.141v.651a1.353,1.353,0,0,0,2.707,0v-.651h2.335a1.086,1.086,0,0,1,1.085,1.085Z" transform="translate(-105.038 -48.01)" fill="rgba(255,255,255,0.9)"/>
    <rect id="사각형_68" data-name="사각형 68" width="3.471" height="3.471" transform="translate(2.603 7.825)" fill="rgba(255,255,255,0.9)"/>
    <rect id="사각형_69" data-name="사각형 69" width="3.471" height="3.471" transform="translate(7.376 7.825)" fill="rgba(255,255,255,0.9)"/>
    <rect id="사각형_70" data-name="사각형 70" width="3.471" height="3.471" transform="translate(2.603 12.598)" fill="rgba(255,255,255,0.9)"/>
    <rect id="사각형_71" data-name="사각형 71" width="3.471" height="3.471" transform="translate(12.149 12.598)" fill="rgba(255,255,255,0.9)"/>
    <rect id="사각형_72" data-name="사각형 72" width="3.471" height="3.471" transform="translate(7.376 12.598)" fill="rgba(255,255,255,0.9)"/>
    <rect id="사각형_73" data-name="사각형 73" width="3.471" height="3.471" transform="translate(12.149 7.825)" fill="rgba(255,255,255,0.9)"/>
    <rect id="사각형_74" data-name="사각형 74" width="3.471" height="3.471" transform="translate(2.603 17.371)" fill="rgba(255,255,255,0.9)"/>
    <rect id="사각형_75" data-name="사각형 75" width="3.471" height="3.471" transform="translate(16.921 7.825)" fill="rgba(255,255,255,0.9)"/>
    <rect id="사각형_76" data-name="사각형 76" width="3.471" height="3.471" transform="translate(12.149 17.371)" fill="rgba(255,255,255,0.9)"/>
    <rect id="사각형_77" data-name="사각형 77" width="3.471" height="3.471" transform="translate(16.921 17.371)" fill="rgba(255,255,255,0.9)"/>
    <rect id="사각형_78" data-name="사각형 78" width="3.471" height="3.471" transform="translate(16.921 12.598)" fill="rgba(255,255,255,0.9)"/>
    <rect id="사각형_79" data-name="사각형 79" width="3.471" height="3.471" transform="translate(7.376 17.371)" fill="rgba(255,255,255,0.9)"/>
  </g>
</svg>
