<svg xmlns="http://www.w3.org/2000/svg" viewBox="0 0 121.51 124.43">
<defs>
<style>.char2-1{fill:#4cbb17;}.char2-2{fill:#0cab75;}</style>
</defs>
<path class="char2-1" d="M46.51,2.28H61.57a0,0,0,0,1,0,0V5.65A47.32,47.32,0,0,1,14.25,53H-.81a0,0,0,0,1,0,0V49.6A47.32,47.32,0,0,1,46.51,2.28Z" transform="translate(52.31 -7.09) rotate(80)"/>
<path class="char2-2" d="M0,1.31H0C27.57-3.55,53.36,12,57.59,36l3.17,17.93h0Z"/>
<path class="char2-2" d="M59.95,2.28H75A47.32,47.32,0,0,1,122.32,49.6V53a0,0,0,0,1,0,0H107.27A47.32,47.32,0,0,1,59.95,5.65V2.28a0,0,0,0,1,0,0Z" transform="translate(134.17 -57.33) rotate(100)"/>
<path class="char2-1" d="M121.51,1.31h0C93.94-3.55,68.15,12,63.92,36L60.76,53.94h0Z"/>
<path class="char2-1" d="M60.71,124.43h7.34a210.48,210.48,0,0,1,0-78.32h0a7.34,7.34,0,0,0-7.34,7.35Z"/>
<path class="char2-2" d="M60.76,124.43H53.41a210.48,210.48,0,0,0,0-78.32h0a7.35,7.35,0,0,1,7.35,7.35Z"/>
</svg>