<svg xmlns="http://www.w3.org/2000/svg" viewBox="0 0 202.11 195.19">
<defs>
<style>.char3-1{fill:#43270f;}.char3-2{fill:#735c32;}.char3-3{fill:#4cbb17;}.char3-4{fill:#0cab75;}</style>
</defs>
<path class="char3-1" d="M103.2,183.55H92.62c7-27.75-9-45.44-16.05-73.19l7.31-.25C84.23,125,95.32,139.3,95.32,139.3Z"/>
<path class="char3-2" d="M100.35,158.94h5.3c-7.06-27.76,19.59-40.29,26.64-68l-4.65-.29c-.36,14.91-23.92,35.17-23.92,35.17Z"/>
<path class="char3-2" d="M100.2,195.19h9.06c-6-51.83-7.6-89.09-1.57-140.92H100.2Z"/>
<path class="char3-1" d="M100.27,195.19H91.21c6-51.83,7.55-89.09,1.51-140.92h7.55Z"/>
<path class="char3-3" d="M0,25.86l11.21,16A61.42,61.42,0,0,0,96.76,57l3.59-2.51L0,25.86H0"/>
<path class="char3-4" d="M48.62,13C32.68,11.12,15.16,15.24,0,25.86H0L100.35,54.44l-11.21-16A61.23,61.23,0,0,0,48.62,13Z"/>
<path class="char3-3" d="M36.18,81.17l3.21,10.6A34.79,34.79,0,0,0,82.76,115l2.37-.72L36.18,81.17h0"/>
<path class="char3-4" d="M64.61,82.86a40,40,0,0,0-28.43-1.69h0l48.95,33.11-3.2-10.59A34.7,34.7,0,0,0,64.61,82.86Z"/>
<path class="char3-4" d="M100.08,54.66h0l4.21,2.1a66,66,0,0,0,88.46-29.59l9.36-18.78Z"/>
<path class="char3-3" d="M202.11,8.39h0c-17.78-8.87-37-10.47-53.66-5.91a65.75,65.75,0,0,0-39,33.4l-9.36,18.78h0Z"/>
<path class="char3-4" d="M128.7,92.14h0l.64-.74c4.9-5.75,2.47-14.93-5.43-20.52l-4.55-3.21Z"/>
<path class="char3-3" d="M119.36,67.67h0a12.61,12.61,0,0,0-2.77,10.85,18.61,18.61,0,0,0,7.56,10.4l4.55,3.22h0Z"/>
<path class="char3-4" d="M128.53,91.76h0l.68.78c5.25,6.09,13.62,8.11,18.7,4.51L150.83,95Z"/>
<path class="char3-3" d="M150.83,95h0a21.35,21.35,0,0,0-9.9-6.63,11.42,11.42,0,0,0-9.47,1.33l-2.93,2.08h0Z"/>
</svg>