<svg xmlns="http://www.w3.org/2000/svg" viewBox="0 0 136.59 149.31">
<defs>
<style>.char1-1{fill:#735c32;}.char1-2{fill:none;stroke:#43270f;stroke-miterlimit:10;stroke-width:2px;}.char1-3{fill:#4cbb17;}.char1-4{fill:#0cab75;}</style>
</defs>
<path class="char1-1" d="M47.86,49.31H75.31a61.28,61.28,0,0,1,61.28,61.28V138a11.28,11.28,0,0,1-11.28,11.28H97.59a61,61,0,0,1-61-61V60.59A11.28,11.28,0,0,1,47.86,49.31Z"/>
<path class="char1-2" d="M62,81.43c-2,18.82,13,31.43,28.51,39.19"/>
<path class="char1-2" d="M47.61,89.38a61.05,61.05,0,0,0,48.1,48.77"/>
<path class="char1-2" d="M125.52,108.44A61.17,61.17,0,0,0,109,76.84"/>
<path class="char1-2" d="M46.59,68.31v10a61.18,61.18,0,0,0,1,11.07"/>
<path class="char1-2" d="M126.59,139.31V119.79a61.51,61.51,0,0,0-1.07-11.35"/>
<path class="char1-3" d="M34.31,4.83H46.76a0,0,0,0,1,0,0V7.62A39.14,39.14,0,0,1,7.62,46.76H-4.83a0,0,0,0,1,0,0V44A39.14,39.14,0,0,1,34.31,4.83Z" transform="translate(46.76 4.83) rotate(90)"/>
<path class="char1-4" d="M0,0H0C23.16,0,41.93,16.36,41.93,36.53V51.59h0Z"/>
</svg>

<svg xmlns="http://www.w3.org/2000/svg" viewBox="0 0 136.59 149.31">
<defs>
<style>.char1-1{fill:#735c32;}.char1-2{fill:none;stroke:#43270f;stroke-miterlimit:10;stroke-width:2px;}.char1-3{fill:#4cbb17;}.char1-4{fill:#0cab75;}</style>
</defs>
<title>Asset 4</title>
<g id="Layer_2" data-name="Layer 2">
<g id="Layer_1-2" data-name="Layer 1">
<path class="char1-1" d="M47.86,49.31H75.31a61.28,61.28,0,0,1,61.28,61.28V138a11.28,11.28,0,0,1-11.28,11.28H97.59a61,61,0,0,1-61-61V60.59A11.28,11.28,0,0,1,47.86,49.31Z"/>
<path class="char1-2" d="M62,81.43c-2,18.82,13,31.43,28.51,39.19"/>
<path class="char1-2" d="M47.61,89.38a61.05,61.05,0,0,0,48.1,48.77"/>
<path class="char1-2" d="M125.52,108.44A61.17,61.17,0,0,0,109,76.84"/>
<path class="char1-2" d="M46.59,68.31v10a61.18,61.18,0,0,0,1,11.07"/>
<path class="char1-2" d="M126.59,139.31V119.79a61.51,61.51,0,0,0-1.07-11.35"/>
<path class="char1-3" d="M34.31,4.83H46.76a0,0,0,0,1,0,0V7.62A39.14,39.14,0,0,1,7.62,46.76H-4.83a0,0,0,0,1,0,0V44A39.14,39.14,0,0,1,34.31,4.83Z" transform="translate(-4.83 46.76) rotate(-90)"/>
<path class="char1-4" d="M41.93,51.59h0C18.77,51.59,0,35.24,0,15.06V0H0Z"/>
</g>
</g>
</svg>