<svg id="그룹_201" data-name="그룹 201" xmlns="http://www.w3.org/2000/svg" width="25" height="20.833" viewBox="0 0 25 20.833">
  <g id="타원_45" data-name="타원 45" transform="translate(4.824)" fill="rgba(255,255,255,0.55)" stroke="#eef5e6" stroke-width="1.5">
    <ellipse cx="3.509" cy="3.459" rx="3.509" ry="3.459" stroke="none"/>
    <ellipse cx="3.509" cy="3.459" rx="2.759" ry="2.709" fill="none"/>
  </g>
  <g id="타원_46" data-name="타원 46" transform="translate(13.158)" fill="rgba(255,255,255,0.55)" stroke="#eef5e6" stroke-width="1.5">
    <ellipse cx="3.509" cy="3.459" rx="3.509" ry="3.459" stroke="none"/>
    <ellipse cx="3.509" cy="3.459" rx="2.759" ry="2.709" fill="none"/>
  </g>
  <g id="패스_55" data-name="패스 55" transform="translate(-257.041 -59.005)" fill="rgba(255,255,255,0.55)">
    <path d="M 281.2911376953125 79.08798980712891 L 275.7077941894531 79.08798980712891 L 275.7077941894531 73.42299652099609 C 275.7077941894531 70.86116027832031 274.6771240234375 68.44258880615234 272.8861999511719 66.67299652099609 L 274.5411376953125 66.67299652099609 C 278.2630920410156 66.67299652099609 281.2911376953125 69.70103454589844 281.2911376953125 73.42299652099609 L 281.2911376953125 79.08798980712891 Z" stroke="none"/>
    <path d="M 280.5411376953125 78.33798980712891 L 280.5411376953125 73.42299652099609 C 280.5411376953125 70.11458587646484 277.8495483398438 67.42299652099609 274.5411376953125 67.42299652099609 L 274.5145568847656 67.42299652099609 C 275.7619323730469 69.14601135253906 276.4577941894531 71.23603820800781 276.4577941894531 73.42299652099609 L 276.4577941894531 78.33798980712891 L 280.5411376953125 78.33798980712891 M 282.0411376953125 79.83798980712891 L 274.9577941894531 79.83798980712891 L 274.9577941894531 73.42299652099609 C 274.9577941894531 70.39507293701172 273.4111633300781 67.72299194335938 271.0669860839844 66.15133666992188 C 271.64697265625 66.00757598876953 272.2499084472656 65.92299652099609 272.8744506835938 65.92299652099609 L 274.5411376953125 65.92299652099609 C 278.6832275390625 65.92299652099609 282.0411376953125 69.28091430664063 282.0411376953125 73.42299652099609 L 282.0411376953125 79.83798980712891 Z" stroke="none" fill="#eef5e6"/>
  </g>
  <g id="패스_56" data-name="패스 56" transform="translate(-237.405 -59.005)" fill="rgba(255,255,255,0.55)">
    <path d="M 253.3216247558594 79.08798980712891 L 238.1549682617188 79.08798980712891 L 238.1549682617188 73.42299652099609 C 238.1549682617188 69.70103454589844 241.1830139160156 66.67299652099609 244.9049835205078 66.67299652099609 L 246.5716552734375 66.67299652099609 C 250.2936096191406 66.67299652099609 253.3216247558594 69.70103454589844 253.3216247558594 73.42299652099609 L 253.3216247558594 79.08798980712891 Z" stroke="none"/>
    <path d="M 252.5716247558594 78.33798980712891 L 252.5716247558594 73.42299652099609 C 252.5716247558594 70.11458587646484 249.8800506591797 67.42299652099609 246.5716552734375 67.42299652099609 L 244.9049835205078 67.42299652099609 C 241.5965728759766 67.42299652099609 238.9049682617188 70.11458587646484 238.9049682617188 73.42299652099609 L 238.9049682617188 78.33798980712891 L 252.5716247558594 78.33798980712891 M 254.0716247558594 79.83798980712891 L 237.4049682617188 79.83798980712891 L 237.4049682617188 73.42299652099609 C 237.4049682617188 69.28091430664063 240.7629089355469 65.92299652099609 244.9049835205078 65.92299652099609 L 246.5716552734375 65.92299652099609 C 250.7137298583984 65.92299652099609 254.0716247558594 69.28091430664063 254.0716247558594 73.42299652099609 L 254.0716247558594 79.83798980712891 Z" stroke="none" fill="#eef5e6"/>
  </g>
</svg>
