<svg xmlns="http://www.w3.org/2000/svg" width="25" height="21.825" viewBox="0 0 25 21.825">
  <g id="패스_52" data-name="패스 52" transform="translate(-32.104 -49.32)" fill="none" opacity="0.9">
    <path d="M56.827,58.822,45.119,49.5a.837.837,0,0,0-1.03,0L32.382,58.822a.729.729,0,0,0,.515,1.294h1.817V70.41a.765.765,0,0,0,.791.735h6.33V65.986a2.769,2.769,0,1,1,5.539,0v5.159H53.7a.765.765,0,0,0,.791-.735V60.116h1.817A.729.729,0,0,0,56.827,58.822Z" stroke="none"/>
    <path d="M 44.60445785522461 51.00440216064453 L 35.04894256591797 58.61591339111328 L 36.21414947509766 58.61591339111328 L 36.21414947509766 60.11591339111328 L 36.21414947509766 69.64492797851563 L 40.33520889282227 69.64492797851563 L 40.33520889282227 65.98618316650391 C 40.33520889282227 63.62740325927734 42.25030136108398 61.70839309692383 44.6042594909668 61.70839309692383 C 46.95843887329102 61.70839309692383 48.87371063232422 63.62740325927734 48.87371063232422 65.98618316650391 L 48.87371063232422 69.64492797851563 L 52.99438095092773 69.64492797851563 L 52.99438095092773 60.11591339111328 L 52.99438095092773 58.61591339111328 L 54.15998077392578 58.61591339111328 L 44.60445785522461 51.00440216064453 M 44.60430908203125 49.31974792480469 C 44.78769302368164 49.31974792480469 44.97112274169922 49.37877655029297 45.11933898925781 49.496826171875 L 56.82653045654297 58.8222541809082 C 57.38405990600586 59.26631546020508 57.04636001586914 60.11591339111328 56.31143951416016 60.11591339111328 L 54.49438095092773 60.11591339111328 L 54.49438095092773 70.41001892089844 C 54.49438095092773 70.81594848632813 54.14001083374023 71.14492797851563 53.70309829711914 71.14492797851563 L 47.37371063232422 71.14492797851563 L 47.37371063232422 65.98618316650391 C 47.37371063232422 64.45205688476563 46.13362884521484 63.20839309692383 44.6042594909668 63.20839309692383 C 43.07489013671875 63.20839309692383 41.83520889282227 64.45205688476563 41.83520889282227 65.98618316650391 L 41.83520889282227 71.14492797851563 L 35.50542068481445 71.14492797851563 C 35.06851959228516 71.14492797851563 34.71414947509766 70.81594848632813 34.71414947509766 70.41001892089844 L 34.71414947509766 60.11591339111328 L 32.89707946777344 60.11591339111328 C 32.16254806518555 60.11591339111328 31.82445907592773 59.26631546020508 32.38240051269531 58.8222541809082 L 44.08956909179688 49.496826171875 C 44.23759078979492 49.37877655029297 44.42092514038086 49.31974792480469 44.60430908203125 49.31974792480469 Z" stroke="none" fill="#fff"/>
  </g>
</svg>
