<svg xmlns="http://www.w3.org/2000/svg" width="155.018" height="375.541" viewBox="0 0 155.018 375.541">
  <g id="그룹_359" data-name="그룹 359" transform="translate(0 0)">
    <g id="그룹_384" data-name="그룹 384">
      <path id="패스_171" data-name="패스 171" d="M1592.77-96.552h-17.994c22.893-59.809-35.615-110.753-65.6-142.242L1521.931-250c5.716,24.635,61.507,77.63,57.441,78.2Z" transform="translate(-1509.181 356.283)" fill="#43270f"/>
      <path id="패스_172" data-name="패스 172" d="M1578.248-252.769l-5.867,5.417c-9.569-25.34-43.15-23.443-61.893-24.132l.964-7.293c8.879,5.877,42.159,5.43,41,6.83Z" transform="translate(-1508.036 331.067)" fill="#43270f"/>
      <path id="패스_173" data-name="패스 173" d="M1551.147-136.26h9.007c-12-47.194,33.314-68.5,45.31-115.7l-7.922-.493c-.606,25.355-40.66,59.8-40.66,59.8Z" transform="translate(-1472.404 354.138)" fill="#735c32"/>
      <path id="패스_174" data-name="패스 174" d="M1550.381-189.286h9.007c-12-47.194,43.122-53.632,55.118-100.825l-8.258.227c-.606,25.355-49.761,53.258-49.761,53.258Z" transform="translate(-1473.076 321.134)" fill="#735c32"/>
      <path id="패스_175" data-name="패스 175" d="M1556.083-209.946l4.212,3.353c11.714-26.248,39.863-8.71,62.8-26.029l-3.948-2.968c-9.59,11.478-42.829,6.066-42.829,6.066Z" transform="translate(-1468.079 368.914)" fill="#735c32"/>
      <path id="패스_176" data-name="패스 176" d="M1552.812,63.965H1585c-16.394-117.092-23.06-189.382-12.528-307.584,1.07,2.441,10.279-37.8,28.376-55.692-.873,0-7.372-1.707-7.372-1.707-10.7,14.716-31.073,47.871-40.661,45.682Z" transform="translate(-1470.945 311.576)" fill="#735c32"/>
      <path id="패스_177" data-name="패스 177" d="M1590.557,68.9h-25.59c8.842-118.345,9.236-280.745,9.236-280.745-2.216-12.851-46.558-53.069-63.286-64.689l-1.013-9.068s54.909,49.779,63.362,49.744c11.106-.047-19.14-64.443-22.644-67.26l7.864-3.524c4.454,19.486,29.224,56.24,32.07,56.24Z" transform="translate(-1508.547 306.645)" fill="#43270f"/>
    </g>
  </g>
</svg>
